<svg xmlns="http://www.w3.org/2000/svg" viewBox="0 0 100 100">
  <defs>
    <linearGradient id="grad" x1="0%" y1="0%" x2="100%" y2="100%">
      <stop offset="0%" style="stop-color:#1a365d;stop-opacity:1" />
      <stop offset="50%" style="stop-color:#4299e1;stop-opacity:1" />
      <stop offset="100%" style="stop-color:#63b3ed;stop-opacity:1" />
    </linearGradient>
  </defs>
  <!-- 背景 -->
  <rect width="100" height="100" rx="22" fill="url(#grad)"/>
  <!-- 云和下载箭头图标 -->
  <g fill="white" opacity="0.95">
    <path d="M 25 50 Q 20 42, 30 42 Q 32 35, 40 35 Q 44 28, 50 30 Q 58 30, 60 38 Q 65 38, 65 45 Q 68 45, 68 50 Q 65 52, 62 50 Q 60 58, 52 58 Q 44 58, 40 52 Q 36 58, 28 58 Q 22 58, 20 52 Q 15 52, 25 50 Z" fill="white"/>
    <path d="M 50 58 L 50 72 M 38 63 L 50 72 L 62 63" stroke="white" stroke-width="3" stroke-linecap="round" stroke-linejoin="round" fill="none"/>
  </g>
  <text x="50" y="48" font-family="Arial, 'Microsoft YaHei', sans-serif" font-size="36" font-weight="bold" fill="white" text-anchor="middle" dominant-baseline="middle">辰</text>
</svg>
